# xmcd
#
# Track frame offsets:
#	150
#	15587
#	34692
#	60832
#	85273
#
# Disc length: 1499 seconds
#
# Revision: 1
# Processed by: cddbd v1.5.2PL0 Copyright (c) Steve Scherf et al.
# Submitted via: audiograbber 1.83.01
#
DISCID=2c05d905
DTITLE=Jugend - Nightstick
DYEAR=2008
DGENRE=militant body rock
TTITLE0=Nightstick
TTITLE1=1001 k.
TTITLE2=Ras Extenza
TTITLE3=Sophia Sofie
TTITLE4=Ras Extravaganza
EXTD=
EXTT0=
EXTT1=
EXTT2=
EXTT3=
EXTT4=
PLAYORDER=
